<?xml version="1.0" standalone="no"?>
<!DOCTYPE svg PUBLIC "-//W3C//DTD SVG 20010904//EN"
 "http://www.w3.org/TR/2001/REC-SVG-20010904/DTD/svg10.dtd">
<svg version="1.0" xmlns="http://www.w3.org/2000/svg"
 width="808.000000pt" height="808.000000pt" viewBox="0 0 808.000000 808.000000"
 preserveAspectRatio="xMidYMid meet">
<metadata>
Created by potrace 1.11, written by Peter Selinger 2001-2013
</metadata>
<g transform="translate(0.000000,808.000000) scale(0.100000,-0.100000)"
fill="#000000" stroke="none">
<path d="M4595 8048 c-25 -54 -78 -143 -87 -146 -4 -2 -8 -8 -8 -14 0 -5 -34
-67 -75 -138 -41 -71 -85 -147 -98 -169 -25 -45 -107 -187 -122 -213 -44 -74
-65 -112 -65 -119 0 -5 -4 -9 -10 -9 -5 0 -10 -5 -10 -11 0 -12 -73 -139 -80
-139 -7 0 -70 109 -70 121 0 5 -4 9 -9 9 -5 0 -11 8 -14 18 -3 9 -20 40 -36
67 -17 28 -40 68 -51 90 -11 22 -50 89 -85 149 -36 60 -65 113 -65 117 0 5 -5
9 -11 9 -5 0 -8 4 -4 9 3 5 1 12 -4 16 -5 3 -16 18 -24 33 -37 71 -182 319
-194 332 -9 9 -16 11 -21 5 -4 -5 -25 -19 -47 -31 -64 -33 -105 -58 -105 -66
0 -4 18 -37 40 -73 22 -36 40 -69 40 -74 0 -5 6 -16 14 -23 7 -8 24 -34 36
-59 13 -24 25 -46 29 -49 3 -3 17 -27 31 -55 13 -27 27 -52 30 -55 3 -3 11
-16 19 -30 8 -14 64 -110 124 -214 60 -104 121 -210 135 -235 14 -25 36 -62
49 -81 12 -19 23 -40 23 -46 0 -7 3 -14 8 -16 4 -1 15 -19 25 -39 19 -36 19
-36 -8 -85 -14 -27 -37 -67 -50 -89 -13 -22 -27 -47 -31 -55 -4 -8 -32 -55
-61 -104 -29 -49 -53 -90 -53 -91 0 -2 -36 -64 -80 -139 -44 -76 -80 -139 -80
-142 0 -3 -16 -30 -35 -60 -19 -30 -35 -56 -35 -58 0 -8 -75 -131 -83 -137 -5
-3 -8 -9 -7 -13 0 -4 -23 -48 -53 -99 -30 -50 -62 -105 -71 -122 -9 -16 -27
-48 -40 -70 -12 -22 -35 -62 -51 -90 -16 -27 -46 -78 -67 -113 -21 -34 -38
-64 -38 -67 0 -2 -21 -39 -46 -82 -26 -43 -57 -96 -69 -118 -13 -22 -62 -107
-109 -188 -47 -82 -86 -151 -86 -156 0 -4 -5 -12 -12 -19 -12 -12 -64 -99 -90
-152 -7 -14 -18 -31 -25 -38 -7 -8 -11 -17 -8 -22 3 -5 2 -10 -3 -12 -7 -3
-52 -77 -120 -198 -14 -25 -33 -57 -43 -72 -11 -14 -19 -29 -19 -32 0 -3 -14
-29 -31 -58 -28 -46 -52 -89 -93 -163 -6 -10 -17 -25 -23 -33 -7 -7 -13 -17
-13 -21 0 -5 -20 -42 -44 -82 -100 -170 -160 -274 -161 -279 0 -3 -8 -16 -17
-30 -30 -46 -69 -115 -81 -142 -6 -16 -15 -28 -20 -28 -4 0 -5 -5 -2 -10 3 -6
-1 -13 -9 -16 -9 -3 -16 -15 -16 -25 0 -10 -4 -19 -8 -19 -5 0 -19 -22 -32
-50 -13 -28 -27 -50 -31 -50 -4 0 -11 -10 -15 -22 -3 -13 -26 -56 -50 -95 -24
-40 -44 -77 -44 -83 0 -5 -4 -10 -8 -10 -4 0 -13 -12 -19 -27 -7 -16 -17 -35
-23 -43 -6 -8 -83 -141 -171 -295 -89 -154 -170 -295 -180 -313 -11 -18 -54
-93 -96 -165 -42 -73 -98 -170 -125 -217 -27 -47 -53 -92 -58 -100 -9 -15 -41
-69 -92 -161 -14 -24 -49 -84 -78 -134 -29 -49 -61 -105 -71 -123 -80 -139
-104 -181 -120 -207 -10 -16 -23 -39 -29 -50 -5 -11 -23 -42 -39 -70 -16 -27
-36 -61 -44 -75 -8 -14 -58 -101 -112 -195 -54 -93 -108 -187 -119 -207 -12
-20 -51 -89 -88 -153 -38 -63 -68 -120 -68 -125 0 -6 -4 -10 -8 -10 -5 0 -16
-17 -26 -38 -10 -20 -33 -63 -52 -94 -19 -32 -34 -60 -34 -64 1 -4 -2 -10 -7
-13 -21 -14 -53 -84 -48 -102 4 -11 2 -19 -4 -19 -16 0 -14 -33 3 -56 14 -18
37 -19 978 -19 543 -1 975 3 990 8 20 6 36 26 59 70 30 59 99 185 120 217 5 8
15 26 21 40 7 14 15 27 18 30 3 3 18 30 34 60 16 30 37 69 47 85 10 17 30 53
44 80 15 28 33 57 39 65 7 8 21 34 32 57 10 24 22 43 27 43 4 0 7 4 7 9 0 5
48 94 106 198 59 103 118 208 132 233 14 25 34 59 44 75 10 17 22 39 27 50 5
11 38 70 74 132 36 61 62 114 59 117 -3 3 0 6 6 6 7 0 12 7 12 15 0 8 5 15 12
15 6 0 8 3 5 6 -4 4 2 19 12 33 10 14 63 107 118 206 56 99 110 196 122 215
11 19 29 51 39 70 39 72 86 156 109 192 13 21 23 40 23 42 0 2 22 42 48 88 26
46 51 90 55 98 4 8 13 24 20 35 7 11 35 60 62 109 28 48 59 105 70 125 12 20
35 61 52 91 16 30 40 72 52 93 32 57 50 88 161 287 57 102 111 197 121 211 10
14 16 28 13 31 -2 3 2 11 11 18 8 7 15 20 15 29 0 9 11 0 25 -21 14 -20 25
-41 25 -47 0 -5 6 -16 13 -23 6 -8 17 -23 23 -33 41 -74 65 -117 93 -163 17
-29 31 -55 31 -58 0 -3 9 -18 19 -33 11 -14 30 -47 44 -71 13 -25 32 -61 43
-80 10 -19 22 -36 27 -38 4 -2 7 -7 7 -11 0 -6 55 -104 160 -286 10 -16 36
-62 59 -102 22 -39 49 -87 60 -105 10 -18 51 -89 90 -156 39 -68 71 -128 71
-133 0 -5 5 -9 10 -9 6 0 10 -4 10 -10 0 -5 22 -47 50 -94 27 -47 50 -89 50
-95 0 -5 4 -11 8 -13 5 -2 22 -28 39 -58 16 -30 72 -127 123 -215 51 -88 103
-179 115 -202 12 -23 26 -48 32 -55 10 -12 49 -81 89 -158 11 -19 21 -37 24
-40 3 -3 11 -16 18 -29 21 -37 50 -87 72 -126 11 -19 30 -52 41 -72 12 -21 47
-81 77 -133 31 -52 57 -97 57 -100 0 -3 8 -16 17 -30 9 -14 60 -101 113 -195
54 -93 108 -188 122 -210 13 -22 29 -52 36 -68 6 -15 15 -27 19 -27 4 0 8 -4
8 -10 0 -5 14 -33 31 -62 17 -29 47 -82 66 -118 20 -36 42 -72 50 -80 12 -13
136 -15 979 -15 785 0 970 2 985 13 26 18 20 85 -13 137 -13 22 -27 47 -31 55
-4 8 -18 33 -32 55 -14 22 -32 54 -40 70 -9 17 -24 44 -35 60 -10 17 -31 53
-45 80 -15 28 -33 57 -39 65 -7 8 -21 33 -31 55 -11 22 -23 42 -26 45 -10 9
-89 152 -89 161 0 5 -4 9 -10 9 -5 0 -10 4 -10 9 0 5 -22 48 -50 96 -27 48
-50 91 -50 96 0 5 -3 9 -8 9 -4 0 -14 15 -22 32 -7 18 -18 38 -22 43 -14 17
-80 129 -81 140 -1 6 -4 12 -7 15 -8 7 -94 152 -102 172 -4 9 -19 35 -33 58
-14 23 -35 58 -47 78 -11 20 -54 94 -94 164 -41 69 -74 131 -74 136 0 6 -4 12
-8 14 -4 2 -21 26 -36 53 -48 85 -70 124 -181 315 -59 102 -121 210 -138 240
-16 30 -33 60 -37 65 -7 8 -221 379 -297 513 -13 23 -53 93 -89 154 -35 61
-64 115 -64 119 0 5 -4 9 -8 9 -4 0 -13 12 -20 28 -18 42 -61 114 -79 134 -9
10 -13 18 -10 18 4 0 -8 24 -26 52 -19 29 -53 89 -77 133 -24 44 -46 82 -50
85 -4 3 -13 20 -21 38 -8 17 -17 32 -21 32 -5 0 -8 5 -8 10 0 6 -10 27 -23 48
-13 20 -37 62 -54 92 -28 52 -73 130 -117 203 -10 18 -30 53 -45 78 -29 52
-100 175 -116 201 -5 9 -17 29 -26 45 -9 15 -25 45 -37 66 -28 47 -56 97 -83
145 -54 94 -174 301 -195 334 -13 21 -24 40 -24 43 0 2 -16 29 -35 59 -19 30
-35 57 -35 60 0 2 -27 50 -60 106 -33 56 -60 103 -60 105 0 2 -51 90 -90 155
-55 92 -180 315 -180 321 0 5 -4 9 -10 9 -5 0 -10 4 -10 9 0 4 -23 48 -52 97
-28 49 -67 116 -85 149 -19 33 -43 76 -55 95 -12 19 -31 53 -43 75 -20 36 -72
126 -221 380 -86 147 -84 127 -19 241 173 298 235 407 235 413 0 4 5 12 12 19
11 11 53 82 96 162 10 19 55 98 100 174 45 76 82 142 82 146 0 3 11 21 25 40
30 41 30 41 -77 99 l-77 42 -16 -33z"/>
</g>
</svg>
